<svg width="120" height="120" viewBox="0 0 120 120" fill="none" xmlns="http://www.w3.org/2000/svg">
<path d="M111.429 17.1431H8.57148C6.20455 17.1431 4.28577 19.0619 4.28577 21.4288V90.0002C4.28577 92.3668 6.20455 94.2859 8.57148 94.2859H111.429C113.795 94.2859 115.714 92.3668 115.714 90.0002V21.4288C115.714 19.0619 113.795 17.1431 111.429 17.1431Z" stroke="black" stroke-width="5" stroke-linecap="round" stroke-linejoin="round"/>
<path d="M51.4286 94.2861L42.8572 115.715" stroke="black" stroke-width="5" stroke-linecap="round" stroke-linejoin="round"/>
<path d="M68.5715 94.2861L77.143 115.715" stroke="black" stroke-width="5" stroke-linecap="round" stroke-linejoin="round"/>
<path d="M34.2858 115.714H85.7143" stroke="black" stroke-width="5" stroke-linecap="round" stroke-linejoin="round"/>
<path d="M91.5429 65.4854C95.0934 65.4854 97.9715 67.3274 97.9715 69.5996V75.7711C97.9715 78.0434 95.0934 79.8854 91.5429 79.8854H27.2572C23.7067 79.8854 20.8286 78.0434 20.8286 75.7711V69.5996C20.8286 67.3274 23.7068 65.4854 27.2572 65.4854H91.5429Z" stroke="black" stroke-width="3" stroke-linecap="round" stroke-linejoin="round"/>
<path d="M59.4 30.5142C62.9504 30.5142 65.8286 32.3562 65.8286 34.6284V53.1427C65.8286 55.415 62.9504 57.257 59.4 57.257H26.8175C23.2671 57.257 20.3889 55.415 20.3889 53.1427L20.3889 34.6284C20.3889 32.3562 23.2671 30.5142 26.8175 30.5142H59.4Z" stroke="black" stroke-width="3" stroke-linecap="round" stroke-linejoin="round"/>
<path d="M94.5559 30.5142C96.3315 30.5142 97.7702 31.4352 97.7702 32.5713V37.7142C97.7702 38.8503 96.3315 39.7713 94.5559 39.7713H81.9C80.125 39.7713 78.6857 38.8503 78.6857 37.7142V32.5713C78.6857 31.4352 80.125 30.5142 81.9 30.5142H94.5559Z" stroke="black" stroke-width="3" stroke-linecap="round" stroke-linejoin="round"/>
<path d="M94.5559 48C96.3315 48 97.7702 48.921 97.7702 50.0571V55.2C97.7702 56.3361 96.3315 57.2571 94.5559 57.2571H81.9C80.125 57.2571 78.6857 56.3361 78.6857 55.2V50.0571C78.6857 48.921 80.125 48 81.9 48H94.5559Z" stroke="black" stroke-width="3" stroke-linecap="round" stroke-linejoin="round"/>
</svg>
