<svg width="120" height="120" viewBox="0 0 120 120" fill="none" xmlns="http://www.w3.org/2000/svg">
<path d="M4.35022 4.28564H25.2831L32.7403 78.4285C33.0502 80.4724 34.0884 82.3354 35.6636 83.6742C37.2386 85.0131 39.2446 85.7374 41.3117 85.7142H95.3117C97.1811 85.8119 99.0308 85.2948 100.578 84.2424C102.126 83.1899 103.287 81.6598 103.883 79.8856L115.283 45.5999C115.708 44.311 115.821 42.9394 115.612 41.5983C115.404 40.2571 114.879 38.9847 114.083 37.8856C113.253 36.7172 112.143 35.7754 110.856 35.1465C109.569 34.5176 108.143 34.2216 106.712 34.2856H28.2831" stroke="black" stroke-width="5" stroke-linecap="round" stroke-linejoin="round"/>
<path d="M93.8546 115.714C91.488 115.714 89.5688 113.795 89.5688 111.428C89.5688 109.062 91.488 107.143 93.8546 107.143C96.2211 107.143 98.1403 109.062 98.1403 111.428C98.1403 113.795 96.2211 115.714 93.8546 115.714Z" stroke="black" stroke-width="5" stroke-linecap="round" stroke-linejoin="round"/>
<path d="M38.1403 115.714C35.7733 115.714 33.8546 113.795 33.8546 111.428C33.8546 109.062 35.7733 107.143 38.1403 107.143C40.5072 107.143 42.426 109.062 42.426 111.428C42.426 113.795 40.5072 115.714 38.1403 115.714Z" stroke="black" stroke-width="5" stroke-linecap="round" stroke-linejoin="round"/>
<path d="M57.3214 51.4287V68.5716" stroke="black" stroke-width="5" stroke-linecap="round" stroke-linejoin="round"/>
<path d="M83.0357 51.4287V68.5716" stroke="black" stroke-width="5" stroke-linecap="round" stroke-linejoin="round"/>
</svg>
