<svg width="120" height="120" viewBox="0 0 120 120" fill="none" xmlns="http://www.w3.org/2000/svg">
<path d="M48.9429 36.9422C32.4857 25.7136 17.1428 34.285 4.28571 47.485L32.7428 64.6279" stroke="black" stroke-width="5" stroke-linecap="round" stroke-linejoin="round"/>
<path d="M83.0573 71.0576C94.2857 87.5144 85.7143 102.857 72.5144 115.714L55.3716 87.2573" stroke="black" stroke-width="5" stroke-linecap="round" stroke-linejoin="round"/>
<path d="M32.7429 64.5439L55.4572 87.2581C73.6286 76.3723 94.2857 65.8295 103.714 56.0581C124.114 35.6581 112.286 7.71524 112.286 7.71524C112.286 7.71524 84.3429 -4.11333 63.9429 16.2866C54.1715 25.7152 43.5429 46.4581 32.7429 64.5439Z" stroke="black" stroke-width="5" stroke-linecap="round" stroke-linejoin="round"/>
<path d="M45.2574 43.0288L76.9717 74.7431" stroke="black" stroke-width="5" stroke-linecap="round" stroke-linejoin="round"/>
<path d="M90 34.2858C92.3666 34.2858 94.2857 32.367 94.2857 30.0001C94.2857 27.6332 92.3666 25.7144 90 25.7144C87.6334 25.7144 85.7143 27.6332 85.7143 30.0001C85.7143 32.367 87.6334 34.2858 90 34.2858Z" stroke="black" stroke-width="5" stroke-linecap="round" stroke-linejoin="round"/>
<path d="M31.5428 106.628C26.5714 111.428 4.28571 115.714 4.28571 115.714C4.28571 115.714 8.57142 93.4279 13.3714 88.4565C14.5484 87.1939 15.9679 86.1808 17.545 85.4778C19.1222 84.7751 20.8247 84.3973 22.551 84.3667C24.2774 84.3363 25.9922 84.6539 27.5931 85.3005C29.194 85.9468 30.6483 86.9094 31.8692 88.1308C33.0901 89.3514 34.0526 90.8059 34.6993 92.4071C35.3459 94.0074 35.6635 95.7225 35.633 97.4488C35.6025 99.1751 35.2247 100.877 34.5219 102.455C33.8192 104.032 32.806 105.451 31.5428 106.628Z" stroke="black" stroke-width="5" stroke-linecap="round" stroke-linejoin="round"/>
</svg>
