<svg width="31" height="61" viewBox="0 0 31 61" fill="none" xmlns="http://www.w3.org/2000/svg">
<path d="M18.9194 48.8604H12.4903C6.72066 48.8604 2 44.8399 2 39.9261V21.05C2 16.1362 6.72066 12.1157 12.4903 12.1157H18.9194C24.6891 12.1157 29.4098 16.1362 29.4098 21.05V39.9261C29.4098 44.8399 24.6891 48.8604 18.9194 48.8604Z" stroke="#52CABB" stroke-width="3" stroke-miterlimit="10" stroke-linecap="round" stroke-linejoin="round"/>
<path d="M15.8023 26.7616H15.6076C14.3116 26.7616 13.2511 25.8585 13.2511 24.7547V18.775C13.2511 17.6713 14.3115 16.7681 15.6076 16.7681H15.8023C17.0983 16.7681 18.1588 17.6712 18.1588 18.775V24.7547C18.1588 25.8585 17.0984 26.7616 15.8023 26.7616Z" stroke="#52CABB" stroke-width="3" stroke-miterlimit="10" stroke-linecap="round" stroke-linejoin="round"/>
<path d="M21.8244 54.3145L15.7681 59.4725" stroke="#52CABB" stroke-width="3" stroke-miterlimit="10" stroke-linecap="round" stroke-linejoin="round"/>
<path d="M9.66248 54.3145L15.7187 59.4725" stroke="#52CABB" stroke-width="3" stroke-miterlimit="10" stroke-linecap="round" stroke-linejoin="round"/>
<path d="M9.66248 6.72199L15.7187 1.56396" stroke="#52CABB" stroke-width="3" stroke-miterlimit="10" stroke-linecap="round" stroke-linejoin="round"/>
<path d="M21.8244 6.72199L15.7681 1.56396" stroke="#52CABB" stroke-width="3" stroke-miterlimit="10" stroke-linecap="round" stroke-linejoin="round"/>
</svg>
